<svg xmlns="http://www.w3.org/2000/svg" width="1200" height="1200" fill="none">
  <rect width="1200" height="1200" fill="#EAEAEA" rx="3"/>
  
  <g opacity="0.5">
    <circle cx="600.709" cy="600.709" r="136.62" fill="#FAFAFA" stroke="#C9C9C9" stroke-width="2.418"/>
    
    <line x1="404.846" x2="796.572" y1="598.671" y2="598.671" stroke="url(#b)" stroke-width="2.418"/>
    <line x1="600.709" y1="795.742" x2="600.709" y2="404.017" stroke="url(#c)" stroke-width="2.418"/>
    <line x1="795.717" y1="796.597" x2="404.276" y2="405.156" stroke="url(#d)" stroke-width="2.418"/>
    
    <circle cx="600.709" cy="600.709" r="56.824" fill="#fff" stroke="#C9C9C9" stroke-width="2.418"/>

    <g clip-path="url(#clip-icon)">
      <path fill="#666" d="M616.426 586.58h-31.434v16.176l3.553-3.554h9.073l8.463-8.463h2.565l7.18 7.181V586.58Z"/>
      <path fill="#666" d="M600.709 604.727l7.18 7.181h-26.599l5.514-5.514h6.066l5.2 5.2Z"/>
      <path fill="#666" d="M616.426 609.652v4.085a6.045 6.045 0 0 1-6.045 6.045h-26.598a6.045 6.045 0 0 1-6.046-6.045v-7.108h38.689Z"/>
    </g>
  </g>

  <defs>
    <linearGradient id="b" x1="796.912" x2="404.507" y1="599.963" y2="599.965">
      <stop stop-color="#C9C9C9" stop-opacity="0"/>
      <stop offset="0.208" stop-color="#C9C9C9"/>
      <stop offset="0.792" stop-color="#C9C9C9"/>
      <stop offset="1" stop-color="#C9C9C9" stop-opacity="0"/>
    </linearGradient>

    <linearGradient id="c" x1="600.792" y1="403.677" x2="600.794" y2="796.082">
      <stop stop-color="#C9C9C9" stop-opacity="0"/>
      <stop offset="0.208" stop-color="#C9C9C9"/>
      <stop offset="0.792" stop-color="#C9C9C9"/>
      <stop offset="1" stop-color="#C9C9C9" stop-opacity="0"/>
    </linearGradient>

    <linearGradient id="d" x1="404.85" y1="403.903" x2="796.972" y2="796.02">
      <stop stop-color="#C9C9C9" stop-opacity="0"/>
      <stop offset="0.208" stop-color="#C9C9C9"/>
      <stop offset="0.792" stop-color="#C9C9C9"/>
      <stop offset="1" stop-color="#C9C9C9" stop-opacity="0"/>
    </linearGradient>

    <clipPath id="clip-icon">
      <rect x="581.364" y="580.535" width="38.689" height="38.689" fill="#fff"/>
    </clipPath>
  </defs>
</svg>
